<?xml version="1.0" encoding="UTF-8" standalone="no"?>
<!-- Created with Inkscape (http://www.inkscape.org/) -->

<svg
   width="106.58475mm"
   height="91.694mm"
   viewBox="0 0 106.58475 91.694"
   version="1.1"
   id="svg1"
   xmlns="http://www.w3.org/2000/svg"
   xmlns:svg="http://www.w3.org/2000/svg">
  <defs
     id="defs1" />
  <g
     id="layer1"
     transform="translate(-81.491709,-90.487455)">
    <path
       id="path227"
       d="m 107.13865,111.16376 c -1.36878,-0.54328 -2.62819,-1.30175 -3.71475,-2.25778 l -8.688915,14.37569 c 1.368778,0.54328 2.628195,1.30528 3.714751,2.26131 l 8.688914,-14.37922"
       style="fill:#203a72;fill-opacity:1;fill-rule:nonzero;stroke:none;stroke-width:0.0352778" />
    <path
       id="path228"
       d="m 144.38493,100.97906 c -0.13052,-0.69497 -0.19755,-1.435805 -0.19755,-2.173111 0,-0.737305 0.067,-1.478139 0.19755,-2.173111 h -19.19816 c 0.127,0.694972 0.19402,1.435806 0.19402,2.173111 0,0.737306 -0.067,1.478141 -0.19402,2.173111 h 19.19816"
       style="fill:#203a72;fill-opacity:1;fill-rule:nonzero;stroke:none;stroke-width:0.0352778" />
    <path
       id="path229"
       d="m 110.87104,152.81976 -10.0965,-9.66611 c -0.825499,1.21708 -1.82386,2.2613 -2.99861,3.12914 l 10.16353,9.72961 c 0.89253,-1.12889 1.86972,-2.19428 2.93158,-3.19264"
       style="fill:#203a72;fill-opacity:1;fill-rule:nonzero;stroke:none;stroke-width:0.0352778" />
    <path
       id="path230"
       d="m 171.11843,125.54298 c 1.08656,-0.95603 2.34598,-1.71803 3.71475,-2.26131 l -8.68891,-14.37569 c -1.08656,0.95603 -2.34597,1.7145 -3.71122,2.25778 l 8.68538,14.37922"
       style="fill:#203a72;fill-opacity:1;fill-rule:nonzero;stroke:none;stroke-width:0.0352778" />
    <path
       id="path231"
       d="m 168.79363,143.15365 -10.0965,9.66611 c 1.06186,0.99836 2.03905,2.06375 2.93158,3.19264 l 10.16353,-9.72961 c -1.17122,-0.86784 -2.17311,-1.91206 -2.99861,-3.12914"
       style="fill:#203a72;fill-opacity:1;fill-rule:nonzero;stroke:none;stroke-width:0.0352778" />
    <path
       id="path232"
       d="m 112.07049,107.12092 c 4.59316,0 8.3185,-3.7218 8.3185,-8.314971 0,-4.593166 -3.72534,-8.3185 -8.3185,-8.3185 -4.59317,0 -8.31498,3.725334 -8.31498,8.3185 0,4.593171 3.72181,8.314971 8.31498,8.314971"
       style="fill:#14a0de;fill-opacity:1;fill-rule:nonzero;stroke:none;stroke-width:0.0352778" />
    <path
       id="path233"
       d="m 157.50121,107.12092 c 4.59317,0 8.31497,-3.7218 8.31497,-8.314971 0,-4.593166 -3.7218,-8.3185 -8.31497,-8.3185 -4.59317,0 -8.3185,3.725334 -8.3185,8.3185 0,4.593171 3.72533,8.314971 8.3185,8.314971"
       style="fill:#14a0de;fill-opacity:1;fill-rule:nonzero;stroke:none;stroke-width:0.0352778" />
    <path
       id="path234"
       d="m 89.810207,127.33156 c -4.593167,0 -8.3185,3.72181 -8.3185,8.31498 0,4.59316 3.725333,8.3185 8.3185,8.3185 4.593167,0 8.314973,-3.72534 8.314973,-8.3185 0,-4.59317 -3.721806,-8.31498 -8.314973,-8.31498"
       style="fill:#14a0de;fill-opacity:1;fill-rule:nonzero;stroke:none;stroke-width:0.0352778" />
    <path
       id="path235"
       d="m 179.76149,127.33156 c -4.59317,0 -8.3185,3.72181 -8.3185,8.31498 0,4.59316 3.72533,8.3185 8.3185,8.3185 4.59317,0 8.31497,-3.72534 8.31497,-8.3185 0,-4.59317 -3.7218,-8.31498 -8.31497,-8.31498"
       style="fill:#14a0de;fill-opacity:1;fill-rule:nonzero;stroke:none;stroke-width:0.0352778" />
    <path
       id="path236"
       d="m 146.67799,151.82845 -0.48683,-0.1905 -0.45862,0.26106 c -6.77686,3.88761 -15.113,3.88761 -21.88986,0 l -0.45508,-0.26106 -0.49036,0.1905 c -9.69081,3.76061 -15.95262,12.87639 -15.95262,23.22337 v 3.7218 c 0,1.88383 1.52401,3.40783 3.40784,3.40783 h 48.86678 c 1.88383,0 3.40783,-1.524 3.40783,-3.40783 v -3.7218 c 0,-10.34698 -6.25828,-19.46276 -15.94908,-23.22337"
       style="fill:#203a72;fill-opacity:1;fill-rule:nonzero;stroke:none;stroke-width:0.0352778" />
    <path
       id="path237"
       d="m 134.78585,148.57584 c 8.68186,0 15.748,-7.05908 15.748,-15.74094 0,-8.67834 -7.06614,-15.74095 -15.748,-15.74095 -8.68186,0 -15.74447,7.06261 -15.74447,15.74095 0,8.68186 7.06261,15.74094 15.74447,15.74094"
       style="fill:#203a72;fill-opacity:1;fill-rule:nonzero;stroke:none;stroke-width:0.0352778" />
  </g>
</svg>
