<?xml version="1.0" encoding="UTF-8" standalone="no"?>
<!-- Created with Inkscape (http://www.inkscape.org/) -->

<svg
   width="92.501694mm"
   height="93.109871mm"
   viewBox="0 0 92.501694 93.109871"
   version="1.1"
   id="svg1"
   xmlns="http://www.w3.org/2000/svg"
   xmlns:svg="http://www.w3.org/2000/svg">
  <defs
     id="defs1" />
  <g
     id="layer1"
     transform="translate(-58.737554,-101.86454)">
    <path
       id="path217"
       d="m 82.710515,164.89889 v 2.98097 c 0,1.50989 1.2065,2.73756 2.716389,2.73756 h 12.414251 l 0.716139,-1.73567 c 1.093611,-2.6035 3.623026,-4.28272 6.434666,-4.28272 2.81164,0 5.33753,1.67922 6.4135,4.28272 l 0.71614,1.73567 h 12.43542 c 1.48872,0 2.71639,-1.22767 2.71639,-2.73756 v -2.98097 c 0,-8.28322 -4.99886,-15.56456 -12.77409,-18.58434 l -0.37747,-0.15169 -0.37747,0.20814 c -5.41514,3.11503 -12.09322,3.11503 -17.508364,0 l -0.377472,-0.20814 -0.395111,0.15169 c -7.754056,3.01978 -12.752918,10.30112 -12.752918,18.58434"
       style="fill:#203a72;fill-opacity:1;fill-rule:nonzero;stroke:none;stroke-width:0.0352778" />
    <path
       id="path218"
       d="m 104.98843,143.71458 c 6.94973,0 12.60475,-5.6515 12.60475,-12.60122 0,-6.94972 -5.65502,-12.60475 -12.60475,-12.60475 -6.949719,0 -12.604747,5.65503 -12.604747,12.60475 0,6.94972 5.655028,12.60122 12.604747,12.60122"
       style="fill:#203a72;fill-opacity:1;fill-rule:nonzero;stroke:none;stroke-width:0.0352778" />
    <path
       id="path219"
       d="m 72.106015,164.59903 c 0.433916,0 0.867833,0.0353 1.284111,0.11289 -3.848806,-5.88786 -6.078362,-12.90461 -6.078362,-20.45406 0,-20.7892 16.905112,-37.67667 37.680196,-37.67667 20.77156,0 37.67667,16.88747 37.67667,37.67667 0,7.54945 -2.22603,14.5662 -6.07483,20.45406 0.41627,-0.0776 0.85019,-0.11289 1.28411,-0.11289 1.33703,0 2.6035,0.37747 3.67594,1.0548 3.71828,-6.28297 5.83142,-13.60311 5.83142,-21.39597 0,-23.37506 -19.01825,-42.39331 -42.39331,-42.39331 -23.378584,0 -42.396835,19.01825 -42.396835,42.39331 0,7.79286 2.113139,15.113 5.831417,21.39597 1.093611,-0.67733 2.338917,-1.0548 3.679473,-1.0548"
       style="fill:#203a72;fill-opacity:1;fill-rule:nonzero;stroke:none;stroke-width:0.0352778" />
    <path
       id="path220"
       d="m 149.17738,177.41192 -6.6675,-0.54328 -2.57175,-6.17008 c -0.76906,-1.83798 -3.37256,-1.83798 -4.13808,0 l -2.57881,6.17008 -6.66397,0.54328 c -1.98261,0.15875 -2.78695,2.63525 -1.27706,3.93347 l 5.07295,4.35328 -1.54164,6.50875 c -0.46214,1.93675 1.64394,3.4678 3.34433,2.43417 l 5.71147,-3.48192 5.71148,3.48192 c 1.70039,1.03363 3.80647,-0.49742 3.34786,-2.43417 l -1.54517,-6.5017 5.07295,-4.36033 c 1.50989,-1.29822 0.70908,-3.77472 -1.27706,-3.93347"
       style="fill:#14a0de;fill-opacity:1;fill-rule:nonzero;stroke:none;stroke-width:0.0352778" />
    <path
       id="path221"
       d="m 116.29849,177.41192 -6.6675,-0.54328 -2.57175,-6.17008 c -0.76906,-1.83798 -3.37256,-1.83798 -4.14161,0 l -2.57175,6.17008 -6.667503,0.54328 c -1.986139,0.15875 -2.786945,2.63525 -1.277056,3.93347 l 5.072945,4.35328 -1.545167,6.50875 c -0.458611,1.93675 1.647473,3.4678 3.35139,2.43417 l 5.707941,-3.48192 5.71148,3.48192 c 1.70038,1.03363 3.80647,-0.49742 3.34786,-2.43417 l -1.54517,-6.5017 5.07295,-4.36033 c 1.50988,-1.29822 0.70555,-3.77472 -1.27706,-3.93347"
       style="fill:#14a0de;fill-opacity:1;fill-rule:nonzero;stroke:none;stroke-width:0.0352778" />
    <path
       id="path222"
       d="m 83.416071,177.41192 -6.663973,-0.54328 -2.575278,-6.17008 c -0.765528,-1.83798 -3.369028,-1.83798 -4.138083,0 l -2.57175,6.17008 -6.667501,0.54328 c -1.982611,0.15875 -2.786945,2.63525 -1.280583,3.93347 l 5.076472,4.35328 -1.545167,6.50875 c -0.458611,1.93675 1.647473,3.4678 3.347862,2.43417 l 5.707945,-3.48192 5.711472,3.48192 c 1.700389,1.03363 3.81,-0.49742 3.347861,-2.43417 l -1.541638,-6.5017 5.072944,-4.36033 c 1.509889,-1.29822 0.705556,-3.77472 -1.280583,-3.93347"
       style="fill:#14a0de;fill-opacity:1;fill-rule:nonzero;stroke:none;stroke-width:0.0352778" />
  </g>
</svg>
