<?xml version="1.0" encoding="UTF-8" standalone="no"?>
<!-- Created with Inkscape (http://www.inkscape.org/) -->

<svg
   width="95.383614mm"
   height="97.430176mm"
   viewBox="0 0 95.383614 97.430176"
   version="1.1"
   id="svg1"
   xmlns="http://www.w3.org/2000/svg"
   xmlns:svg="http://www.w3.org/2000/svg">
  <defs
     id="defs1" />
  <g
     id="layer1"
     transform="translate(-41.01048,-93.397878)">
    <path
       id="path323"
       d="m 67.34136,136.92925 c 7.941029,0 14.375696,-6.43432 14.375696,-14.37429 0,-7.94173 -6.434667,-14.37922 -14.375696,-14.37922 -7.941028,0 -14.379223,6.43749 -14.379223,14.37922 0,7.93997 6.438195,14.37429 14.379223,14.37429"
       style="fill:#203a72;fill-opacity:1;fill-rule:nonzero;stroke:none;stroke-width:0.0352778" />
    <path
       id="path324"
       d="m 82.44025,156.43574 2.878667,-2.86385 c 1.17475,-1.17545 2.7305,-1.82139 4.388556,-1.82139 0.991305,0 1.919111,0.2159 2.779889,0.66287 -1.524,-6.6548 -6.505223,-11.85333 -12.862279,-13.82289 -0.680861,-0.21519 -1.407583,0.18168 -1.654528,0.86078 l -7.104944,20.3454 -1.636889,-13.29373 h 1.093611 c 0.659694,0 1.188861,-0.52952 1.188861,-1.19133 v -3.65866 c 0,-0.64558 -0.529167,-1.1751 -1.188861,-1.1751 h -5.961945 c -0.645583,0 -1.17475,0.52952 -1.17475,1.1751 v 3.65866 c 0,0.66181 0.529167,1.19133 1.17475,1.19133 h 1.093611 l -1.640417,13.29373 -7.101417,-20.3454 c -0.229305,-0.6791 -0.977194,-1.07597 -1.654528,-0.86078 -6.970889,2.16852 -12.301362,8.2109 -13.211528,15.7928 l -0.811389,9.6012 c -0.328084,3.87421 2.716389,7.18538 6.589889,7.18538 l 29.368752,0.0159 v -1.58891 c 0,-2.73156 1.802695,-5.11528 4.335639,-5.90974 -1.224139,-2.36749 -0.811389,-5.33082 1.11125,-7.25135"
       style="fill:#203a72;fill-opacity:1;fill-rule:nonzero;stroke:none;stroke-width:0.0352778" />
    <path
       id="path325"
       d="m 100.50247,179.04034 c -4.095747,0 -7.418914,-3.31964 -7.418914,-7.41539 0,-4.09681 3.323167,-7.41716 7.418914,-7.41716 4.09575,0 7.41539,3.32035 7.41539,7.41716 0,4.09575 -3.31964,7.41539 -7.41539,7.41539 z m 17.57539,-11.32699 -3.49955,-0.51012 c -0.44097,-1.06045 -0.55739,-1.34408 -0.99836,-2.4063 l 2.11666,-2.83492 c 0.56445,-0.75741 0.48684,-1.81293 -0.17991,-2.47968 l -2.87514,-2.87372 c -0.66675,-0.66781 -1.72156,-0.74295 -2.4765,-0.17957 l -2.83634,2.11702 c -1.06186,-0.44132 -1.34408,-0.55774 -2.40594,-0.9966 l -0.51153,-3.50167 c -0.13405,-0.93451 -0.93486,-1.6263 -1.87678,-1.6263 h -4.063997 c -0.945444,0 -1.74625,0.69179 -1.880305,1.6263 l -0.508,3.50167 c -1.061861,0.43886 -1.347611,0.55528 -2.409473,0.9966 l -2.832805,-2.11702 c -0.758473,-0.56338 -1.813278,-0.48824 -2.480028,0.17957 l -2.875139,2.87372 c -0.66675,0.66675 -0.740834,1.72227 -0.179917,2.47827 l 2.116667,2.83633 c -0.437445,1.06222 -0.557389,1.34585 -0.994834,2.4063 l -3.503083,0.51012 c -0.931334,0.13405 -1.626306,0.93591 -1.626306,1.87854 v 4.06435 c 0,0.94403 0.694972,1.74413 1.626306,1.87995 l 3.503083,0.50836 c 0.437445,1.06221 0.557389,1.34584 0.994834,2.40806 l -2.116667,2.83421 c -0.560917,0.75742 -0.486833,1.81363 0.179917,2.48074 l 2.875139,2.87196 c 0.66675,0.66746 1.721555,0.74436 2.480028,0.18027 l 2.832805,-2.11631 c 1.061862,0.43885 1.347612,0.55703 2.409473,0.99659 l 0.508,3.50168 c 0.134055,0.93274 0.934861,1.6263 1.880305,1.6263 h 4.063997 c 0.94192,0 1.74273,-0.69356 1.87678,-1.6263 l 0.51153,-3.50168 c 1.06186,-0.43956 1.34408,-0.55774 2.40594,-0.99659 l 2.83634,2.11631 c 0.75494,0.56409 1.80975,0.48719 2.4765,-0.18027 l 2.87514,-2.87196 c 0.66675,-0.66711 0.74436,-1.72509 0.17991,-2.48074 l -2.12372,-2.84233 c 0.43745,-1.05727 0.55739,-1.34091 0.99483,-2.39818 l 3.51014,-0.51012 c 0.93486,-0.13582 1.62631,-0.93592 1.62631,-1.87995 v -4.06435 c 0,-0.94263 -0.69145,-1.74449 -1.62631,-1.87854"
       style="fill:#14a0de;fill-opacity:1;fill-rule:nonzero;stroke:none;stroke-width:0.0352778" />
    <path
       id="path326"
       d="m 123.82814,115.83137 c -2.14489,0 -3.88055,-1.73566 -3.88055,-3.87773 0,-2.14313 1.73566,-3.87915 3.88055,-3.87915 2.14136,0 3.87703,1.73602 3.87703,3.87915 0,2.14207 -1.73567,3.87773 -3.87703,3.87773 z m -12.07205,0 c -2.14137,0 -3.87703,-1.73566 -3.87703,-3.87773 0,-2.14313 1.73566,-3.87915 3.87703,-3.87915 2.14136,0 3.88055,1.73602 3.88055,3.87915 0,2.14207 -1.73919,3.87773 -3.88055,3.87773 z m -12.068533,0 c -2.141361,0 -3.880556,-1.73566 -3.880556,-3.87773 0,-2.14313 1.739195,-3.87915 3.880556,-3.87915 2.141363,0 3.877023,1.73602 3.877023,3.87915 0,2.14207 -1.73566,3.87773 -3.877023,3.87773 z M 111.75609,93.39788 c -13.606644,0 -24.638006,8.30686 -24.638006,18.55576 0,4.91419 2.554111,9.36978 6.695722,12.68906 l -3.012722,9.51901 c -0.423333,1.32468 1.044222,2.44898 2.215445,1.70074 L 103.22239,129.341 c 2.66347,0.7426 5.52803,1.16734 8.5337,1.16734 13.61016,0 24.638,-8.30686 24.638,-18.5547 0,-10.2489 -11.02784,-18.55576 -24.638,-18.55576"
       style="fill:#203a72;fill-opacity:1;fill-rule:nonzero;stroke:none;stroke-width:0.0352778" />
  </g>
</svg>
