<?xml version="1.0" encoding="UTF-8" standalone="no"?>
<!-- Created with Inkscape (http://www.inkscape.org/) -->

<svg
   width="127.34776mm"
   height="87.707626mm"
   viewBox="0 0 127.34776 87.707626"
   version="1.1"
   id="svg1"
   xmlns="http://www.w3.org/2000/svg"
   xmlns:svg="http://www.w3.org/2000/svg">
  <defs
     id="defs1" />
  <g
     id="layer1"
     transform="translate(-33.602185,-87.047895)">
    <path
       id="path238"
       d="m 114.74734,146.7379 10.60803,-4.03578 1.76389,-1.80622 v -37.18278 c 0,-1.21356 -0.97014,-2.20486 -2.20487,-2.20486 h -15.63511 c -0.0247,11.02783 -11.204221,19.64972 -25.474083,19.64972 -0.751417,0 -1.520473,-0.0212 -2.314223,-0.0917 -1.654528,0.79728 -3.220861,1.524 -4.677833,2.16605 v 9.47914 c 0.970139,-0.28575 1.964972,-0.41627 2.956278,-0.41627 4.078111,0 7.761111,2.24719 9.616723,5.88786 1.322916,2.5788 1.541639,5.51391 0.659694,8.24794 -0.881944,2.7552 -2.801056,4.98475 -5.358695,6.2865 l -7.874,4.01461 v 3.2632 c 0,1.23472 0.991305,2.20486 2.204861,2.20486 h 30.194248 c -0.28927,-0.48683 -0.52916,-0.99483 -0.72672,-1.524 -1.016,-2.71286 -0.9278,-5.64444 0.23989,-8.26911 1.19239,-2.62467 3.33022,-4.65314 6.02192,-5.66914"
       style="fill:#203a72;fill-opacity:1;fill-rule:nonzero;stroke:none;stroke-width:0.0352778" />
    <path
       id="path239"
       d="m 73.197168,98.209785 c 1.795639,0 3.249084,1.453445 3.249084,3.252615 0,1.79211 -1.453445,3.24908 -3.249084,3.24908 -1.795639,0 -3.252611,-1.45697 -3.252611,-3.24908 0,-1.79917 1.456972,-3.252615 3.252611,-3.252615 z m 10.600973,0 c 1.795639,0 3.249084,1.453445 3.249084,3.252615 0,1.79211 -1.453445,3.24908 -3.249084,3.24908 -1.795639,0 -3.252611,-1.45697 -3.252611,-3.24908 0,-1.79917 1.456972,-3.252615 3.252611,-3.252615 z m 10.600973,0 c 1.795639,0 3.249084,1.453445 3.249084,3.252615 0,1.79211 -1.453445,3.24908 -3.249084,3.24908 -1.795639,0 -3.252611,-1.45697 -3.252611,-3.24908 0,-1.79917 1.456972,-3.252615 3.252611,-3.252615 z M 71.144001,112.68426 c -0.440972,1.31233 -1.319388,3.00214 -3.083277,5.05178 -1.114778,1.29469 0.197555,3.2138 1.799166,2.62114 3.323167,-1.23473 7.133167,-2.97039 10.65389,-4.68842 1.068917,0.12347 2.162528,0.20461 3.284361,0.20461 11.147779,0 20.185949,-6.45231 20.185949,-14.4145 0,-7.958668 -9.03817,-14.410974 -20.185949,-14.410974 -11.151306,0 -20.189473,6.452306 -20.189473,14.410974 0,4.54025 2.945694,8.58308 7.535333,11.22539"
       style="fill:#14a0de;fill-opacity:1;fill-rule:nonzero;stroke:none;stroke-width:0.0352778" />
    <path
       id="path240"
       d="m 158.66465,137.58684 c -2.61409,-6.14539 -12.01562,-5.2705 -15.65628,-4.12397 -1.61573,0.50447 -2.667,1.38289 -3.84881,2.6035 -1.32644,1.36878 -10.81617,11.16542 -10.81617,11.16542 l -11.71222,4.44853 c -2.85044,1.08302 -4.27919,4.26508 -3.19617,7.112 0.83609,2.20133 2.92806,3.556 5.15409,3.556 0.64911,0 1.31233,-0.11289 1.95439,-0.35984 l 12.86933,-4.8895 c 0.75495,-0.28575 1.43933,-0.7373 2.00378,-1.31939 l 0.93486,-0.96661 c 0.127,6.54756 1.04775,17.75178 1.12889,18.3127 0.13758,0.97014 0.5715,1.62983 1.778,1.62983 1.2065,0 17.30728,0 19.86492,0 1.04775,0 1.72508,-0.80433 1.73566,-1.85561 0.0988,-12.01208 0.56445,-28.81842 -2.19427,-35.31306"
       style="fill:#203a72;fill-opacity:1;fill-rule:nonzero;stroke:none;stroke-width:0.0352778" />
    <path
       id="path241"
       d="m 147.19231,129.83279 c 6.65339,0 12.04736,-5.39398 12.04736,-12.05089 0,-6.65339 -5.39397,-12.04736 -12.04736,-12.04736 -6.65339,0 -12.04736,5.39397 -12.04736,12.04736 0,6.65691 5.39397,12.05089 12.04736,12.05089"
       style="fill:#203a72;fill-opacity:1;fill-rule:nonzero;stroke:none;stroke-width:0.0352778" />
    <path
       id="path242"
       d="m 84.676558,140.59604 c -1.382889,-2.71286 -4.702528,-3.79236 -7.415389,-2.40595 l -10.308168,5.25639 c 0,0 -5.700889,-3.95111 -7.545917,-5.29519 -1.157111,-0.84667 -4.550834,-3.556 -7.863417,-4.68842 -3.612445,-1.23825 -13.042195,-2.02142 -15.652751,4.12397 -2.76225,6.49464 -2.296584,23.30098 -2.197806,35.31306 0.01058,1.05128 0.687917,1.85561 1.739195,1.85561 2.554111,0 18.65489,0 19.86139,0 1.2065,0 1.640417,-0.65969 1.778,-1.62983 0.08819,-0.62089 1.2065,-14.22047 1.143,-20.19653 -0.0071,-0.63853 0.0035,-1.34056 0.01411,-2.07433 l 5.238751,3.54894 c 0.927805,0.62795 2.007305,0.94897 3.090333,0.94897 0.85725,0 1.718028,-0.20108 2.50825,-0.60325 l 13.204473,-6.73805 c 2.712862,-1.38289 3.792362,-4.70253 2.405945,-7.41539"
       style="fill:#203a72;fill-opacity:1;fill-rule:nonzero;stroke:none;stroke-width:0.0352778" />
    <path
       id="path243"
       d="m 47.359722,129.83279 c 6.65339,0 12.047362,-5.39398 12.047362,-12.05089 0,-6.65339 -5.393972,-12.04736 -12.047362,-12.04736 -6.653389,0 -12.047362,5.39397 -12.047362,12.04736 0,6.65691 5.393973,12.05089 12.047362,12.05089"
       style="fill:#203a72;fill-opacity:1;fill-rule:nonzero;stroke:none;stroke-width:0.0352778" />
  </g>
</svg>
